<?xml version="1.0" encoding="UTF-8"?>
<svg width="512" height="512" viewBox="0 0 512 512" fill="none" xmlns="http://www.w3.org/2000/svg">
  <rect width="512" height="512" rx="256" fill="#FF6B6B"/>
  <path d="M384 128V384C384 400 368 416 352 416C336 416 320 400 320 384V160C320 144 304 128 288 128C272 128 256 144 256 160V384C256 400 240 416 224 416C208 416 192 400 192 384V224C192 208 176 192 160 192C144 192 128 208 128 224V384C128 400 112 416 96 416C80 416 64 400 64 384V256C64 240 48 224 32 224V128C48 128 64 144 64 160V224C80 224 96 208 96 192V160C112 160 128 176 128 192V224C144 224 160 208 160 192V160C176 160 192 176 192 192V224C208 224 224 208 224 192V160C240 160 256 176 256 192V224C272 224 288 208 288 192V160C304 160 320 176 320 192V224C336 224 352 208 352 192V160C368 160 384 176 384 192V128Z" fill="white"/>
</svg> 